<?xml version="1.0" standalone="no"?>
<!DOCTYPE svg PUBLIC "-//W3C//DTD SVG 20010904//EN"
 "http://www.w3.org/TR/2001/REC-SVG-20010904/DTD/svg10.dtd">
<svg version="1.0" xmlns="http://www.w3.org/2000/svg"
 width="512.000000pt" height="512.000000pt" viewBox="0 0 512.000000 512.000000"
 preserveAspectRatio="xMidYMid meet">

<g transform="translate(0.000000,512.000000) scale(0.100000,-0.100000)"
fill="#000000" stroke="none">
<path d="M0 2560 l0 -2560 873 0 872 0 -45 21 c-57 25 -86 53 -112 104 -24 47
-16 -44 -149 1645 -85 1070 -96 1186 -112 1200 -10 8 -31 35 -45 60 -47 79
-34 187 33 260 22 24 23 34 28 255 7 299 33 419 132 618 119 238 351 463 580
563 l63 27 4 133 c4 147 11 166 78 212 l33 22 -1117 0 -1116 0 0 -2560z"/>
<path d="M2510 5098 c59 -40 70 -65 77 -165 l6 -91 71 -6 c476 -44 871 -335
1045 -772 65 -163 82 -263 88 -533 5 -225 6 -235 29 -269 63 -92 54 -193 -25
-284 l-28 -33 -102 -1305 c-56 -718 -106 -1344 -111 -1392 -13 -128 -48 -185
-140 -227 l-45 -21 873 0 872 0 0 2560 0 2560 -1321 0 -1322 0 33 -22z"/>
<path d="M2270 4330 l0 -640 80 0 80 0 0 640 0 640 -80 0 -80 0 0 -640z"/>
<path d="M2590 4583 c1 -87 3 -105 13 -92 31 40 113 53 155 23 25 -17 54 -69
72 -130 10 -35 18 -43 49 -52 89 -28 155 -122 153 -221 0 -31 -2 -64 -4 -75
-2 -14 7 -21 42 -32 116 -35 190 -169 158 -285 -7 -25 -6 -26 44 -32 147 -18
250 -151 219 -285 l-9 -42 84 0 84 0 0 143 c0 172 -14 294 -46 406 -118 405
-458 704 -871 766 -157 24 -143 33 -143 -92z"/>
<path d="M2038 4546 c-302 -172 -499 -472 -537 -819 -6 -53 -11 -157 -11 -232
l0 -135 74 0 73 0 -10 49 c-27 139 95 281 244 281 26 0 27 1 17 42 -25 114 49
238 164 273 33 10 42 17 40 31 -8 52 -2 133 12 169 13 33 16 73 14 213 l-3
172 -77 -44z"/>
<path d="M2667 4302 c-9 -17 -31 -42 -47 -56 -30 -24 -30 -26 -30 -125 l0
-101 120 0 c115 0 122 1 145 25 14 13 26 32 26 42 5 75 -32 113 -110 113 -49
0 -73 27 -81 86 l-5 45 -18 -29z"/>
<path d="M2076 3849 c-15 -12 -32 -33 -37 -46 -16 -43 27 -113 70 -113 7 0 11
33 11 90 0 50 -4 90 -9 90 -4 0 -20 -10 -35 -21z"/>
<path d="M2590 3780 l0 -90 216 0 c135 0 223 4 236 11 11 6 26 26 34 44 17 41
7 73 -32 104 -25 20 -37 21 -240 21 l-214 0 0 -90z"/>
<path d="M1835 3531 c-63 -26 -80 -106 -31 -147 l27 -24 729 0 729 0 27 24
c38 32 39 86 1 124 l-27 27 -718 2 c-394 1 -726 -2 -737 -6z"/>
<path d="M1439 3195 c-37 -20 -46 -61 -21 -94 l19 -26 1123 0 1123 0 19 26
c25 34 15 75 -23 94 -42 22 -2200 22 -2240 0z"/>
<path d="M1500 2911 c0 -32 211 -2672 215 -2698 12 -66 -33 -63 845 -63 878 0
833 -3 845 63 4 25 215 2669 215 2699 0 5 -27 8 -60 8 -34 0 -60 -4 -60 -10 0
-16 -158 -2019 -169 -2150 -6 -63 -15 -180 -21 -260 -13 -174 -15 -185 -40
-210 -20 -20 -36 -20 -710 -20 -674 0 -690 0 -710 20 -11 11 -22 30 -24 42 -4
18 -206 2553 -206 2581 0 4 -27 7 -60 7 -33 0 -60 -4 -60 -9z"/>
<path d="M1770 2913 c0 -5 20 -260 45 -568 25 -308 45 -563 45 -567 0 -5 59
-8 130 -8 l130 0 0 575 0 575 -175 0 c-96 0 -175 -3 -175 -7z"/>
<path d="M2275 2908 c-3 -7 -4 -265 -3 -573 l3 -560 78 -3 77 -3 0 176 c0 196
9 239 54 251 14 3 38 3 52 0 45 -12 54 -55 54 -251 l0 -175 335 0 c184 0 335
3 335 8 0 4 20 259 45 567 25 308 45 563 45 568 0 4 -171 7 -380 7 l-380 0 0
-158 c0 -207 -14 -251 -80 -251 -66 0 -80 41 -80 245 l0 164 -75 0 c-51 0 -77
-4 -80 -12z"/>
<path d="M1876 1568 c3 -29 8 -93 12 -143 l7 -90 665 0 665 0 7 90 c4 50 9
114 12 143 l5 52 -689 0 -689 0 5 -52z"/>
<path d="M1914 1093 c4 -49 9 -114 13 -145 l6 -58 627 0 627 0 6 58 c4 31 9
96 13 145 l7 87 -653 0 -653 0 7 -87z"/>
<path d="M1944 713 c3 -16 8 -75 11 -133 3 -58 8 -117 11 -132 l6 -28 588 0
588 0 6 28 c3 15 8 74 11 132 3 58 8 117 11 133 l6 27 -622 0 -622 0 6 -27z"/>
</g>
</svg>
